# UnionBytes Painter Early Access v0.672 (2022-11-27)
# File: Unnamed.dat
# www.UnionBytes.de
o Unnamed
v -1.591785 2.603766 -0.177948
v -1.491785 2.503766 -0.277948
v -1.491785 0.403766 -0.277948
v -1.591785 0.303766 -0.177948
v -1.791785 2.803766 -0.177948
v 0.008215 2.803766 -0.177948
v -0.191785 2.603766 -0.177948
v -0.191785 0.303766 -0.177948
v 0.008215 0.003766 -0.177948
v -1.791785 0.003766 -0.177948
v -0.291785 0.403766 -0.277948
v -0.291785 2.503766 -0.277948
v 0.008215 2.803766 0.138676
v 0.008215 0.003766 0.138676
v -1.791785 0.003766 0.138676
v -1.791785 2.803766 0.138676
v -1.991785 2.603766 -0.177948
v -1.991785 0.303766 -0.177948
v -2.091785 0.403766 -0.277948
v -2.091785 2.503766 -0.277948
v -3.391785 2.603766 -0.177948
v -3.591785 2.803766 -0.177948
v -3.391785 0.303766 -0.177948
v -3.591785 0.003766 -0.177948
v -3.291785 0.403766 -0.277948
v -3.291785 2.503766 -0.277948
v -3.591785 0.003766 0.138676
v -3.591785 2.803766 0.138676
v -1.591785 3.003766 -0.177948
v -1.591785 5.303766 -0.177948
v -1.491785 5.203766 -0.277948
v -1.491785 3.103766 -0.277948
v -0.191785 3.003766 -0.177948
v -0.191785 5.303766 -0.177948
v -1.791785 5.603765 -0.177948
v 0.008215 5.603765 -0.177948
v -0.291785 5.203766 -0.277948
v -0.291785 3.103766 -0.277948
v 0.008215 5.603765 0.138676
v -1.791785 5.603765 0.138676
v -1.991785 3.003766 -0.177948
v -2.091785 3.103766 -0.277948
v -2.091785 5.203766 -0.277948
v -1.991785 5.303766 -0.177948
v -3.391785 3.003766 -0.177948
v -3.391785 5.303766 -0.177948
v -3.591785 5.603765 -0.177948
v -3.291785 5.203766 -0.277948
v -3.291785 3.103766 -0.277948
v -3.591785 5.603765 0.138676
vt 0.694468 0.398483
vt 0.691270 0.395286
vt 0.691270 0.328141
vt 0.694468 0.324944
vt 0.700862 0.404878
vt 0.643310 0.404878
vt 0.649705 0.398483
vt 0.649705 0.324944
vt 0.643310 0.315352
vt 0.700862 0.315352
vt 0.652902 0.328141
vt 0.652902 0.395286
vt 0.331659 0.500000
vt 0.321775 0.500000
vt 0.321775 0.412587
vt 0.331659 0.412587
vt 0.444047 0.432357
vt 0.444047 0.422472
vt 0.387853 0.422472
vt 0.387853 0.432357
vt 0.902998 0.444952
vt 0.846564 0.444952
vt 0.846564 0.357165
vt 0.902998 0.357165
vt 0.707257 0.398483
vt 0.707257 0.324944
vt 0.710454 0.328141
vt 0.710454 0.395286
vt 0.752020 0.398483
vt 0.758415 0.404878
vt 0.752020 0.324944
vt 0.758415 0.315352
vt 0.748822 0.328141
vt 0.748822 0.395286
vt 0.311890 0.412587
vt 0.311890 0.500000
vt 0.331659 0.432357
vt 0.331659 0.422472
vt 0.790129 0.444952
vt 0.790129 0.357165
vt 0.694468 0.411272
vt 0.694468 0.484811
vt 0.691270 0.481614
vt 0.691270 0.414470
vt 0.649705 0.411272
vt 0.649705 0.484811
vt 0.700862 0.494403
vt 0.643310 0.494403
vt 0.652902 0.481614
vt 0.652902 0.414470
vt 0.331659 0.587413
vt 0.321775 0.587413
vt 0.387853 0.412587
vt 0.444047 0.412587
vt 0.902998 0.532740
vt 0.846564 0.532740
vt 0.707257 0.411272
vt 0.710454 0.414470
vt 0.710454 0.481614
vt 0.707257 0.484811
vt 0.752020 0.411272
vt 0.752020 0.484811
vt 0.758415 0.494403
vt 0.748822 0.481614
vt 0.748822 0.414470
vt 0.311890 0.587413
vt 0.790129 0.532740
vn -0.707100 0.000000 -0.707100
vn 0.000000 0.000000 -1.000000
vn 0.000000 0.707100 -0.707100
vn 0.707100 0.000000 -0.707100
vn 0.000000 -0.707100 -0.707100
vn 1.000000 0.000000 0.000000
vn 0.000000 -1.000000 0.000000
vn 0.000000 0.000000 1.000000
vn -1.000000 0.000000 0.000000
vn 0.000000 1.000000 0.000000
s off
f 1/1/1 2/2/1 3/3/1 4/4/1
f 1/1/2 5/5/2 6/6/2 7/7/2
f 8/8/2 9/9/2 10/10/2 4/4/2
f 4/4/2 10/10/2 5/5/2 1/1/2
f 7/7/2 6/6/2 9/9/2 8/8/2
f 11/11/2 3/3/2 2/2/2 12/12/2
f 7/7/3 12/12/3 2/2/3 1/1/3
f 8/8/4 11/11/4 12/12/4 7/7/4
f 4/4/5 3/3/5 11/11/5 8/8/5
f 6/13/6 13/14/6 14/15/6 9/16/6
f 9/17/7 14/18/7 15/19/7 10/20/7
f 13/21/8 16/22/8 15/23/8 14/24/8
f 17/25/4 18/26/4 19/27/4 20/28/4
f 17/25/2 21/29/2 22/30/2 5/5/2
f 23/31/2 18/26/2 10/10/2 24/32/2
f 18/26/2 17/25/2 5/5/2 10/10/2
f 21/29/2 23/31/2 24/32/2 22/30/2
f 25/33/2 26/34/2 20/28/2 19/27/2
f 21/29/3 17/25/3 20/28/3 26/34/3
f 23/31/1 21/29/1 26/34/1 25/33/1
f 18/26/5 23/31/5 25/33/5 19/27/5
f 22/14/9 24/15/9 27/35/9 28/36/9
f 24/37/7 10/20/7 15/19/7 27/38/7
f 28/39/8 27/40/8 15/23/8 16/22/8
f 29/41/1 30/42/1 31/43/1 32/44/1
f 29/41/2 33/45/2 6/6/2 5/5/2
f 34/46/2 30/42/2 35/47/2 36/48/2
f 30/42/2 29/41/2 5/5/2 35/47/2
f 33/45/2 34/46/2 36/48/2 6/6/2
f 37/49/2 38/50/2 32/44/2 31/43/2
f 33/45/5 29/41/5 32/44/5 38/50/5
f 34/46/4 33/45/4 38/50/4 37/49/4
f 30/42/3 34/46/3 37/49/3 31/43/3
f 6/13/6 36/51/6 39/52/6 13/14/6
f 36/18/10 35/19/10 40/53/10 39/54/10
f 13/21/8 39/55/8 40/56/8 16/22/8
f 41/57/4 42/58/4 43/59/4 44/60/4
f 41/57/2 5/5/2 22/30/2 45/61/2
f 46/62/2 47/63/2 35/47/2 44/60/2
f 44/60/2 35/47/2 5/5/2 41/57/2
f 45/61/2 22/30/2 47/63/2 46/62/2
f 48/64/2 43/59/2 42/58/2 49/65/2
f 45/61/5 49/65/5 42/58/5 41/57/5
f 46/62/1 48/64/1 49/65/1 45/61/1
f 44/60/3 43/59/3 48/64/3 46/62/3
f 22/14/9 28/36/9 50/66/9 47/52/9
f 47/38/10 50/16/10 40/53/10 35/19/10
f 28/39/8 16/22/8 40/56/8 50/67/8
