# Made in Blockbench 4.10.4
mtllib Table.mtl

o cuboid
v 1.25 0.9375 0.625
v 1.25 0.9375 -0.625
v 1.25 0.8125 0.625
v 1.25 0.8125 -0.625
v -1.25 0.9375 0.625
v -1.25 0.9375 -0.625
v -1.25 0.8125 0.625
v -1.25 0.8125 -0.625
vt 0.578125 0.703125
vt 0.421875 0.703125
vt 0.421875 0.6875
vt 0.578125 0.6875
vt 0.578125 0.6640625
vt 0.578125 0.6796875
vt 0.421875 0.6796875
vt 0.421875 0.6640625
vt 0 0.84375
vt 0.3125 0.84375
vt 0.3125 1
vt 0 1
vt 0.3125 0.6796875
vt 0.3125 0.8359375
vt 0 0.8359375
vt 0 0.6796875
vt 0.6328125 0.796875
vt 0.6328125 0.8125
vt 0.3203125 0.8125
vt 0.3203125 0.796875
vt 0.6328125 0.7890625
vt 0.3203125 0.7890625
vt 0.3203125 0.7734375
vt 0.6328125 0.7734375
vn 1 0 0
vn -1 0 0
vn 0 1 0
vn 0 -1 0
vn 0 0 1
vn 0 0 -1
usemtl m_27fcc7d7-8ae0-96a2-f4e2-15922d2b0bf4
f 2/1/1 1/2/1 3/3/1 4/4/1
f 7/5/2 5/6/2 6/7/2 8/8/2
f 5/9/3 1/10/3 2/11/3 6/12/3
f 4/13/4 3/14/4 7/15/4 8/16/4
f 3/17/5 1/18/5 5/19/5 7/20/5
f 6/21/6 2/22/6 4/23/6 8/24/6
o cuboid
v 0.8386595131321702 0.8706291523647999 0.5288013406313415
v 0.8386595131321702 0.8624505172337993 0.3414797990847432
v 0.9149207880363711 -0.1252115714283052 0.5668230677552796
v 0.9149207880363711 -0.13339020655930567 0.3795015262086813
v 1.0254460190243726 0.88695530045093 0.5280885256118371
v 1.0254460190243726 0.8787766653199294 0.34076698406523875
v 1.1017072939285735 -0.10888542334217499 0.5661102527357751
v 1.1017072939285735 -0.11706405847317547 0.37878871118917684
vt 0.4239246906391584 0.7421875
vt 0.5488593605299563 0.7421875
vt 0.5487315593608416 0.765625
vt 0.4237968894700437 0.765625
vt 0.3453625 0.765625
vt 0.321925 0.765625
vt 0.32260625 0.640625
vt 0.34604375 0.640625
vt 0.3046875 0.515625
vt 0.3046875 0.4921875
vt 0.328125 0.4921875
vt 0.328125 0.515625
vt 0.359375 0.515625
vt 0.3359375 0.515625
vt 0.3359375 0.4921875
vt 0.359375 0.4921875
vt 0.24423597001930614 0.6484375
vt 0.24398080911888592 0.671875
vt 0.11904527998069386 0.671875
vt 0.11930044088111406 0.6484375
vt 0.3828125 0.6404350895695937
vt 0.3828125 0.7653698375040858
vt 0.359375 0.765625
vt 0.359375 0.6406902520655079
vn -0.9970847461635828 -0.07622946751083934 0.003328250428937031
vn 0.9970847461635828 0.07622946751083934 -0.003328250428937031
vn -0.0871557427476582 0.9952465414778341 -0.0434534024273578
vn 0.0871557427476582 -0.9952465414778341 0.0434534024273578
vn 0.00047548546607364647 0.038189087231488845 0.9992704176197741
vn -0.00047548546607364647 -0.038189087231488845 -0.999270417619774
usemtl m_27fcc7d7-8ae0-96a2-f4e2-15922d2b0bf4
f 11/25/7 9/26/7 10/27/7 12/28/7
f 14/29/8 13/30/8 15/31/8 16/32/8
f 10/33/9 9/34/9 13/35/9 14/36/9
f 15/37/10 11/38/10 12/39/10 16/40/10
f 13/41/11 9/42/11 11/43/11 15/44/11
f 12/45/12 10/46/12 14/47/12 16/48/12
o cuboid
v -0.8386595131321702 0.8706291523647999 0.5288013406313415
v -0.8386595131321702 0.8624505172337993 0.3414797990847432
v -0.9149207880363711 -0.1252115714283052 0.5668230677552796
v -0.9149207880363711 -0.13339020655930567 0.3795015262086813
v -1.0254460190243726 0.88695530045093 0.5280885256118371
v -1.0254460190243726 0.8787766653199294 0.34076698406523875
v -1.1017072939285735 -0.10888542334217499 0.5661102527357751
v -1.1017072939285735 -0.11706405847317547 0.37878871118917684
vt 0.02505 0.671875
vt 0.0016124999999999994 0.671875
vt 0.002293749999999999 0.546875
vt 0.02573125 0.546875
vt 0.3223617996203867 0.5703125
vt 0.44729725074956994 0.5703125
vt 0.4471694503796133 0.59375
vt 0.32223399925043006 0.59375
vt 0.3671875 0.4921875
vt 0.390625 0.4921875
vt 0.390625 0.515625
vt 0.3671875 0.515625
vt 0.421875 0.4921875
vt 0.421875 0.515625
vt 0.3984375 0.515625
vt 0.3984375 0.4921875
vt 0.28125 0.54296875
vt 0.28125 0.6679042791381921
vt 0.2578125 0.6681594400386123
vt 0.2578125 0.5432239109004202
vt 0.44736058021520314 0.6015625
vt 0.44710541771928897 0.625
vt 0.32217066978479686 0.625
vt 0.32242583228071103 0.6015625
vn 0.9970847461635828 -0.07622946751083934 0.003328250428937031
vn -0.9970847461635828 0.07622946751083934 -0.003328250428937031
vn 0.0871557427476582 0.9952465414778341 -0.0434534024273578
vn -0.0871557427476582 -0.9952465414778341 0.0434534024273578
vn -0.00047548546607364647 0.038189087231488845 0.999270417619774
vn 0.00047548546607364647 -0.038189087231488845 -0.9992704176197741
usemtl m_27fcc7d7-8ae0-96a2-f4e2-15922d2b0bf4
f 18/49/13 17/50/13 19/51/13 20/52/13
f 23/53/14 21/54/14 22/55/14 24/56/14
f 21/57/15 17/58/15 18/59/15 22/60/15
f 20/61/16 19/62/16 23/63/16 24/64/16
f 19/65/17 17/66/17 21/67/17 23/68/17
f 22/69/18 18/70/18 20/71/18 24/72/18
o cuboid
v 0.8386595131321702 0.8706291523647999 -0.5288013406313415
v 0.8386595131321702 0.8624505172337993 -0.3414797990847432
v 0.9149207880363711 -0.1252115714283052 -0.5668230677552796
v 0.9149207880363711 -0.13339020655930567 -0.3795015262086813
v 1.0254460190243726 0.88695530045093 -0.5280885256118371
v 1.0254460190243726 0.8787766653199294 -0.34076698406523875
v 1.1017072939285735 -0.10888542334217499 -0.5661102527357751
v 1.1017072939285735 -0.11706405847317547 -0.37878871118917684
vt 0.0641125 0.671875
vt 0.040675 0.671875
vt 0.04135625 0.546875
vt 0.06479375 0.546875
vt 0.11923679962038666 0.5546875
vt 0.2441722507495699 0.5546875
vt 0.24404445037961334 0.578125
vt 0.11910899925043009 0.578125
vt 0.453125 0.515625
vt 0.4296875 0.515625
vt 0.4296875 0.4921875
vt 0.453125 0.4921875
vt 0.4609375 0.515625
vt 0.4609375 0.4921875
vt 0.484375 0.4921875
vt 0.484375 0.515625
vt 0.3125 0.54296875
vt 0.3125 0.6679042791381921
vt 0.2890625 0.6681594400386123
vt 0.2890625 0.5432239109004202
vt 0.24423558021520314 0.5859375
vt 0.24398041771928897 0.609375
vt 0.11904566978479686 0.609375
vt 0.11930083228071105 0.5859375
vn -0.9970847461635828 -0.07622946751083934 -0.003328250428937031
vn 0.9970847461635828 0.07622946751083934 0.003328250428937031
vn -0.0871557427476582 0.9952465414778341 0.0434534024273578
vn 0.0871557427476582 -0.9952465414778341 -0.0434534024273578
vn 0.00047548546607364647 0.038189087231488845 -0.999270417619774
vn -0.00047548546607364647 -0.038189087231488845 0.9992704176197741
usemtl m_27fcc7d7-8ae0-96a2-f4e2-15922d2b0bf4
f 26/73/19 25/74/19 27/75/19 28/76/19
f 31/77/20 29/78/20 30/79/20 32/80/20
f 29/81/21 25/82/21 26/83/21 30/84/21
f 28/85/22 27/86/22 31/87/22 32/88/22
f 27/89/23 25/90/23 29/91/23 31/92/23
f 30/93/24 26/94/24 28/95/24 32/96/24
o cuboid
v -0.8386595131321702 0.8706291523647999 -0.5288013406313415
v -0.8386595131321702 0.8624505172337993 -0.3414797990847432
v -0.9149207880363711 -0.1252115714283052 -0.5668230677552796
v -0.9149207880363711 -0.13339020655930567 -0.3795015262086813
v -1.0254460190243726 0.88695530045093 -0.5280885256118371
v -1.0254460190243726 0.8787766653199294 -0.34076698406523875
v -1.1017072939285735 -0.10888542334217499 -0.5661102527357751
v -1.1017072939285735 -0.11706405847317547 -0.37878871118917684
vt 0.4239246906391584 0.7109375
vt 0.5488593605299563 0.7109375
vt 0.5487315593608416 0.734375
vt 0.4237968894700437 0.734375
vt 0.103175 0.671875
vt 0.0797375 0.671875
vt 0.08041875 0.546875
vt 0.10385625 0.546875
vt 0.0234375 0.484375
vt 0.0234375 0.5078125
vt 0 0.5078125
vt 0 0.484375
vt 0.03125 0.484375
vt 0.0546875 0.484375
vt 0.0546875 0.5078125
vt 0.03125 0.5078125
vt 0.24423597001930614 0.6171875
vt 0.24398080911888592 0.640625
vt 0.11904527998069386 0.640625
vt 0.11930044088111406 0.6171875
vt 0.4140625 0.6404350895695937
vt 0.4140625 0.7653698375040858
vt 0.390625 0.765625
vt 0.390625 0.6406902520655079
vn 0.9970847461635828 -0.07622946751083934 -0.003328250428937031
vn -0.9970847461635828 0.07622946751083934 0.003328250428937031
vn 0.0871557427476582 0.9952465414778341 0.0434534024273578
vn -0.0871557427476582 -0.9952465414778341 -0.0434534024273578
vn -0.00047548546607364647 0.038189087231488845 -0.9992704176197741
vn 0.00047548546607364647 -0.038189087231488845 0.999270417619774
usemtl m_27fcc7d7-8ae0-96a2-f4e2-15922d2b0bf4
f 35/97/25 33/98/25 34/99/25 36/100/25
f 38/101/26 37/102/26 39/103/26 40/104/26
f 34/105/27 33/106/27 37/107/27 38/108/27
f 39/109/28 35/110/28 36/111/28 40/112/28
f 37/113/29 33/114/29 35/115/29 39/116/29
f 36/117/30 34/118/30 38/119/30 40/120/30
o cuboid
v 0.9375 0.375 0.5
v 0.9375000000000003 0.375 0.4375
v 0.9375 0.1875 0.5
v 0.9375000000000003 0.1875 0.4375
v -0.9375 0.375 0.5
v -0.9375000000000003 0.375 0.4375
v -0.9375 0.1875 0.5
v -0.9375000000000003 0.1875 0.4375
vt 0.0703125 0.5078125
vt 0.0625 0.5078125
vt 0.0625 0.484375
vt 0.0703125 0.484375
vt 0.0859375 0.484375
vt 0.0859375 0.5078125
vt 0.078125 0.5078125
vt 0.078125 0.484375
vt 0.4609375 0.6171875
vt 0.6953125 0.6171875
vt 0.6953125 0.625
vt 0.4609375 0.625
vt 0.6953125 0.6015625
vt 0.6953125 0.609375
vt 0.4609375 0.609375
vt 0.4609375 0.6015625
vt 0.5546875 0.9765625
vt 0.5546875 1
vt 0.3203125 1
vt 0.3203125 0.9765625
vt 0.5546875 0.96875
vt 0.3203125 0.96875
vt 0.3203125 0.9453125
vt 0.5546875 0.9453125
vn 1 0 5.329070518200751e-15
vn -1 0 5.329070518200751e-15
vn 0 1 0
vn 0 -1 0
vn 0 0 1
vn 0 0 -1
usemtl m_27fcc7d7-8ae0-96a2-f4e2-15922d2b0bf4
f 42/121/31 41/122/31 43/123/31 44/124/31
f 47/125/32 45/126/32 46/127/32 48/128/32
f 45/129/33 41/130/33 42/131/33 46/132/33
f 44/133/34 43/134/34 47/135/34 48/136/34
f 43/137/35 41/138/35 45/139/35 47/140/35
f 46/141/36 42/142/36 44/143/36 48/144/36
o cuboid
v 0.9375 0.375 -0.4375
v 0.9375000000000003 0.375 -0.5
v 0.9375 0.1875 -0.4375
v 0.9375000000000003 0.1875 -0.5
v -0.9375 0.375 -0.4375
v -0.9375000000000003 0.375 -0.5
v -0.9375 0.1875 -0.4375
v -0.9375000000000003 0.1875 -0.5
vt 0.5 0.515625
vt 0.4921875 0.515625
vt 0.4921875 0.4921875
vt 0.5 0.4921875
vt 0.1015625 0.4765625
vt 0.1015625 0.5
vt 0.09375 0.5
vt 0.09375 0.4765625
vt 0.4609375 0.5859375
vt 0.6953125 0.5859375
vt 0.6953125 0.59375
vt 0.4609375 0.59375
vt 0.6953125 0.5703125
vt 0.6953125 0.578125
vt 0.4609375 0.578125
vt 0.4609375 0.5703125
vt 0.5546875 0.9140625
vt 0.5546875 0.9375
vt 0.3203125 0.9375
vt 0.3203125 0.9140625
vt 0.5546875 0.90625
vt 0.3203125 0.90625
vt 0.3203125 0.8828125
vt 0.5546875 0.8828125
vn 1 0 5.329070518200751e-15
vn -1 0 5.329070518200751e-15
vn 0 1 0
vn 0 -1 0
vn 0 0 1
vn 0 0 -1
usemtl m_27fcc7d7-8ae0-96a2-f4e2-15922d2b0bf4
f 50/145/37 49/146/37 51/147/37 52/148/37
f 55/149/38 53/150/38 54/151/38 56/152/38
f 53/153/39 49/154/39 50/155/39 54/156/39
f 52/157/40 51/158/40 55/159/40 56/160/40
f 51/161/41 49/162/41 53/163/41 55/164/41
f 54/165/42 50/166/42 52/167/42 56/168/42
o cuboid
v 0.9375 0.875 0
v 0.9375000000000003 0.875 -0.0625
v 0.9375 0.6875 0
v 0.9375000000000003 0.6875 -0.0625
v -0.9375 0.875 0
v -0.9375000000000003 0.875 -0.0625
v -0.9375 0.6875 0
v -0.9375000000000003 0.6875 -0.0625
vt 0.1171875 0.5
vt 0.109375 0.5
vt 0.109375 0.4765625
vt 0.1171875 0.4765625
vt 0.1328125 0.4765625
vt 0.1328125 0.5
vt 0.125 0.5
vt 0.125 0.4765625
vt 0.21875 0.5234375
vt 0.453125 0.5234375
vt 0.453125 0.53125
vt 0.21875 0.53125
vt 0.6953125 0.5234375
vt 0.6953125 0.53125
vt 0.4609375 0.53125
vt 0.4609375 0.5234375
vt 0.5546875 0.8515625
vt 0.5546875 0.875
vt 0.3203125 0.875
vt 0.3203125 0.8515625
vt 0.5546875 0.84375
vt 0.3203125 0.84375
vt 0.3203125 0.8203125
vt 0.5546875 0.8203125
vn 1 0 5.329070518200751e-15
vn -1 0 5.329070518200751e-15
vn 0 1 0
vn 0 -1 0
vn 0 0 1
vn 0 0 -1
usemtl m_27fcc7d7-8ae0-96a2-f4e2-15922d2b0bf4
f 58/169/43 57/170/43 59/171/43 60/172/43
f 63/173/44 61/174/44 62/175/44 64/176/44
f 61/177/45 57/178/45 58/179/45 62/180/45
f 60/181/46 59/182/46 63/183/46 64/184/46
f 59/185/47 57/186/47 61/187/47 63/188/47
f 62/189/48 58/190/48 60/191/48 64/192/48
o cuboid
v -0.9999999999999999 0.8125 0.37500000000000017
v -0.9374999999999999 0.8125 0.37500000000000033
v -0.9999999999999999 0.625 0.37500000000000017
v -0.9374999999999999 0.625 0.37500000000000033
v -1 0.8125 -0.37500000000000017
v -0.9375000000000001 0.8125 -0.37500000000000033
v -1 0.625 -0.37500000000000017
v -0.9375000000000001 0.625 -0.37500000000000033
vt 0.1484375 0.5
vt 0.140625 0.5
vt 0.140625 0.4765625
vt 0.1484375 0.4765625
vt 0.1640625 0.4765625
vt 0.1640625 0.5
vt 0.15625 0.5
vt 0.15625 0.4765625
vt 0 0.53125
vt 0.09375 0.53125
vt 0.09375 0.5390625
vt 0 0.5390625
vt 0.09375 0.515625
vt 0.09375 0.5234375
vt 0 0.5234375
vt 0 0.515625
vt 0.515625 0.6328125
vt 0.515625 0.65625
vt 0.421875 0.65625
vt 0.421875 0.6328125
vt 0.4140625 0.5625
vt 0.3203125 0.5625
vt 0.3203125 0.5390625
vt 0.4140625 0.5390625
vn -2.4424906541753444e-15 -1.165592393275421e-19 1
vn -2.886579864025407e-15 1.165592393275421e-19 -1
vn 1.8072259420058102e-36 1 1.165592393275421e-19
vn -1.8072259420058102e-36 -1 -1.165592393275421e-19
vn -1 -2.588135024684626e-35 2.220446049250313e-16
vn 1 2.588135024684626e-35 -2.220446049250313e-16
usemtl m_27fcc7d7-8ae0-96a2-f4e2-15922d2b0bf4
f 66/193/49 65/194/49 67/195/49 68/196/49
f 71/197/50 69/198/50 70/199/50 72/200/50
f 69/201/51 65/202/51 66/203/51 70/204/51
f 68/205/52 67/206/52 71/207/52 72/208/52
f 67/209/53 65/210/53 69/211/53 71/212/53
f 70/213/54 66/214/54 68/215/54 72/216/54
o cuboid
v 0.9375000000000001 0.8125 0.37500000000000017
v 1 0.8125 0.37500000000000033
v 0.9375000000000001 0.625 0.37500000000000017
v 1 0.625 0.37500000000000033
v 0.9374999999999999 0.8125 -0.37500000000000017
v 0.9999999999999999 0.8125 -0.37500000000000033
v 0.9374999999999999 0.625 -0.37500000000000017
v 0.9999999999999999 0.625 -0.37500000000000033
vt 0.1796875 0.5
vt 0.171875 0.5
vt 0.171875 0.4765625
vt 0.1796875 0.4765625
vt 0.1953125 0.4765625
vt 0.1953125 0.5
vt 0.1875 0.5
vt 0.1875 0.4765625
vt 0.1015625 0.5078125
vt 0.1953125 0.5078125
vt 0.1953125 0.515625
vt 0.1015625 0.515625
vt 0.296875 0.5078125
vt 0.296875 0.515625
vt 0.203125 0.515625
vt 0.203125 0.5078125
vt 0.515625 0.5390625
vt 0.515625 0.5625
vt 0.421875 0.5625
vt 0.421875 0.5390625
vt 0.2109375 0.546875
vt 0.1171875 0.546875
vt 0.1171875 0.5234375
vt 0.2109375 0.5234375
vn -2.4424906541753444e-15 -1.165592393275421e-19 1
vn -2.886579864025407e-15 1.165592393275421e-19 -1
vn 1.8072259420058102e-36 1 1.165592393275421e-19
vn -1.8072259420058102e-36 -1 -1.165592393275421e-19
vn -1 -2.588135024684626e-35 2.220446049250313e-16
vn 1 2.588135024684626e-35 -2.220446049250313e-16
usemtl m_27fcc7d7-8ae0-96a2-f4e2-15922d2b0bf4
f 74/217/55 73/218/55 75/219/55 76/220/55
f 79/221/56 77/222/56 78/223/56 80/224/56
f 77/225/57 73/226/57 74/227/57 78/228/57
f 76/229/58 75/230/58 79/231/58 80/232/58
f 75/233/59 73/234/59 77/235/59 79/236/59
f 78/237/60 74/238/60 76/239/60 80/240/60